<svg xmlns="http://www.w3.org/2000/svg" viewBox="40 24 1467 668" role="img" aria-label="IMMOBILIA di Francesca Cavagnaro">
  <!-- Ricostruzione vettoriale provvisoria del logo (originale: docs/brand/logo-reference.jpg).
       Versione per fondo scuro. Sostituire con il vettoriale del grafico quando disponibile. -->
  <g transform="translate(474.37 44.5) scale(1.18)">
    <g fill="none" stroke="#B4BBC2" stroke-width="5.5" stroke-linejoin="miter" stroke-miterlimit="4">
      <path d="M0 325V0L107 107L213 25V150"/>
      <path d="M507 325V0L400 107L294 25V150"/>
      <path d="M63 110V325"/>
      <path d="M444 110V325"/>
      <path d="M82 275V191L130 151L178 191V275Z"/>
      <path d="M188 275V169L253.5 119L319 169V275Z"/>
      <path d="M329 275V191L377 151L425 191V275Z"/>
    </g>
    <rect x="248" y="229" width="11" height="46" fill="#C9AE85"/>
  </g>
  <g fill="none" stroke="#B4BBC2" stroke-width="6.5">
    <path d="M474.37 428H60V596H86"/>
    <path d="M1072.63 428H1487V596H1461"/>
  </g>
  <g transform="translate(161 478)" fill="none" stroke="#F0F3FA" stroke-width="10" stroke-linejoin="miter" stroke-miterlimit="2.5">
    <path d="M0 0V100"/>
    <path d="M0 100V0L35 62L70 0V100" transform="translate(100 0)"/>
    <path d="M0 100V0L35 62L70 0V100" transform="translate(270 0)"/>
    <path d="M48 0A48 50 0 1 1 48 100A48 50 0 1 1 48 0Z" transform="translate(440 0)"/>
    <path d="M0 100V0H30A23 23 0 0 1 30 46H0M30 46H34A27 27 0 0 1 34 100H0" transform="translate(636 0)"/>
    <path d="M0 0V100" transform="translate(797 0)"/>
    <path d="M0 0V100H56" transform="translate(897 0)"/>
    <path d="M0 0V100" transform="translate(1053 0)"/>
    <path d="M0 100L36 0L72 100M13 64H59" transform="translate(1153 0)"/>
  </g>
  <text x="773.5" y="670" fill="#B4BBC2" text-anchor="middle" font-size="40" letter-spacing="12" font-family="'Avenir Next', Avenir, 'Segoe UI', Futura, Helvetica, Arial, sans-serif">di Francesca Cavagnaro</text>
</svg>
